<svg preserveAspectRatio="xMidYMid meet" viewBox="2328.971296875 613.280696 226.12500000000003 216.79800000000003" xmlns="http://www.w3.org/2000/svg" version="1.0" style="max-height: 500px" width="226.12500000000003" height="216.79800000000003">
 <g fill="#fdfdfe">
  <path d="M0 785.30 l0 -785.30 1407 0 1407 0 0 785.30 0 785.30 -1407 0 -1407 0 0 -785.30z m524.15 178.94 c6.75 -1.64 16.56 -5.11 22.29 -7.57 l10.23 -4.29 -9.20 -9.20 -9.20 -9.20 -12.07 3.27 c-15.34 4.29 -46.83 4.50 -62.58 0.41 -28.02 -7.36 -51.94 -26.99 -65.44 -53.99 -9.82 -19.63 -12.47 -33.33 -11.04 -60.53 1.02 -25.36 3.68 -33.54 19.84 -65.24 24.75 -48.06 120.45 -195.51 148.68 -229.05 4.70 -5.73 4.70 -5.93 1.23 -9.82 -2.05 -2.25 -6.14 -5.93 -9 -7.98 l-5.52 -3.89 -16.36 22.09 c-32.52 43.76 -88.14 127.61 -114.93 173.22 -49.08 83.44 -57.88 110.02 -50.10 148.47 4.29 22.09 12.47 41.31 24.13 57.47 34.56 48.06 87.53 69.33 139.06 55.83z m170.35 1.02 c26.18 -6.54 44.38 -16.97 63.40 -35.99 14.32 -13.91 18.41 -19.63 27.20 -37.83 13.91 -28.63 19.43 -50.31 18.20 -73.21 -0.61 -12.47 -2.05 -20.04 -5.11 -25.77 -17.79 -33.74 -55.42 -33.74 -111.05 0.20 -29.86 18.41 -62.78 26.79 -112.07 29.24 l-27.20 1.23 9.61 13.09 9.82 13.09 14.32 -1.23 c7.98 -0.82 21.27 -1.84 29.45 -2.66 l14.72 -1.43 0 6.95 c0 5.93 -2.25 9.61 -13.29 21.68 l-13.29 14.52 8.38 6.75 c6.54 5.11 9.20 6.14 11.86 4.50 1.84 -1.02 12.07 -12.07 22.70 -24.34 35.58 -41.31 56.44 -60.53 74.44 -69.53 14.72 -7.16 18.20 -7.98 34.97 -8.59 24.34 -1.02 24.75 -0.61 24.13 27.20 -0.82 57.47 -28.63 99.80 -74.85 113.71 -12.27 3.89 -17.38 4.29 -37.02 3.27 -60.33 -3.07 -88.55 -27.40 -164.42 -141.31 -14.32 -21.47 -30.27 -45.81 -35.17 -53.79 -5.11 -8.18 -9.61 -14.93 -10.23 -14.93 -0.61 0 -3.89 4.70 -7.57 10.63 -5.93 10.23 -6.14 10.84 -3.07 15.95 1.84 2.86 15.54 23.93 30.47 46.83 69.74 106.14 104.71 141.93 155.63 158.49 24.13 7.98 42.54 9 65.03 3.27z m-224.14 -117.59 c0 -0.41 -4.09 -7.36 -9.20 -15.34 l-9.41 -14.32 -17.18 -0.41 c-9.61 -0.20 -19.02 -0.41 -20.86 -0.41 -3.07 -0.20 -3.68 1.84 -4.29 12.47 l-0.61 12.68 6.75 1.23 c3.68 0.61 16.97 1.84 29.24 2.86 12.47 0.82 23.11 1.84 24.13 2.05 0.82 0 1.43 -0.20 1.43 -0.82z m-132.32 -44.38 c0.61 -6.54 0.41 -11.86 -0.41 -11.86 -3.68 0 -25.15 -24.13 -30.68 -34.77 -16.56 -30.88 -16.36 -75.46 0.20 -106.96 7.98 -15.13 27.61 -34.97 42.13 -42.95 13.29 -7.16 43.36 -14.93 64.83 -16.56 9 -0.82 21.68 -1.84 28.02 -2.45 12.47 -1.23 10.84 0.20 25.36 -22.09 l3.68 -5.93 -29.45 1.43 c-51.94 2.45 -85.69 11.86 -114.11 31.90 -23.72 16.56 -41.31 39.67 -52.15 68.10 -5.73 15.13 -6.34 19.02 -6.34 41.31 -0.20 34.77 6.75 54.60 28.84 83.03 12.07 15.34 34.77 34.15 37.63 30.88 0.82 -0.82 1.84 -6.75 2.45 -13.09z m2090.05 9.20 c-2.66 -0.41 -6.75 -0.41 -9.20 0 -2.66 0.41 -0.61 0.82 4.50 0.82 5.11 0 7.16 -0.41 4.70 -0.82z m65.44 0 c-2.66 -0.41 -6.75 -0.41 -9.20 0 -2.66 0.41 -0.61 0.82 4.50 0.82 5.11 0 7.16 -0.41 4.70 -0.82z m-1467.94 -32.52 c25.77 -6.54 46.42 -24.95 56.03 -49.49 l4.29 -10.84 -15.75 0.61 -15.75 0.61 -2.05 7.16 c-2.86 10.02 -17.38 23.72 -28.22 26.59 -13.70 3.89 -38.45 1.64 -50.10 -4.29 -11.86 -6.14 -21.88 -18.81 -26.18 -32.93 -4.29 -14.72 -4.29 -58.49 0.20 -73.21 5.11 -17.18 13.70 -28.22 26.79 -34.15 9.82 -4.50 13.09 -4.91 32.11 -4.29 26.79 0.82 34.77 5.32 43.56 24.13 l5.73 12.27 14.72 0 14.72 0 -3.07 -8.59 c-13.09 -37.42 -47.04 -58.90 -86.51 -55.01 -49.49 5.11 -84.05 46.83 -84.05 101.84 0 29.24 9.41 54.81 26.99 73.42 23.72 25.15 54.81 34.56 86.51 26.18z m439.69 -2.66 c12.68 -5.52 24.34 -16.77 30.88 -29.24 2.66 -5.32 4.91 -10.23 4.91 -10.84 0 -0.61 -6.14 -1.02 -13.70 -1.02 l-13.91 0.20 -4.09 8.59 c-5.32 11.04 -14.32 15.75 -30.68 15.75 -18 -0.20 -27.81 -5.32 -33.95 -17.59 -4.29 -9 -4.91 -12.68 -4.91 -35.58 0 -22.70 0.61 -26.59 4.70 -35.17 6.75 -13.70 14.52 -18 33.33 -18 18.61 0 27.20 4.50 32.11 16.36 l3.48 8.18 13.91 0 c13.50 0 13.91 -0.20 12.68 -4.50 -3.07 -9.82 -11.86 -22.50 -19.84 -28.22 -14.32 -10.43 -29.24 -14.93 -45.81 -13.70 -26.79 2.05 -48.06 16.97 -59.72 41.92 -4.91 10.23 -5.52 14.11 -5.52 33.13 0 19.02 0.61 22.90 5.32 32.93 9.61 20.45 25.56 34.56 44.79 40.08 12.88 3.68 33.74 2.25 46.01 -3.27z m598.18 -0.61 c11.86 -5.32 21.06 -13.50 27.20 -23.93 l3.68 -6.34 -12.27 0 c-10.02 0 -12.68 0.82 -15.13 4.09 -8.79 12.68 -39.06 16.56 -56.65 7.77 -13.09 -6.95 -17.18 -13.50 -18 -30.27 l-0.82 -14.32 53.58 0 53.79 0 -1.23 -12.88 c-3.27 -34.77 -22.50 -59.92 -51.13 -67.08 -12.27 -3.07 -31.49 -1.23 -43.56 4.09 -28.43 12.68 -46.83 48.67 -41.72 81.60 4.70 29.24 22.09 50.92 47.65 60.12 15.34 5.52 39.47 4.29 54.60 -2.86z m-905.96 -69.12 l0 -73.62 -16.36 0 -16.36 0 0 73.62 0 73.62 16.36 0 16.36 0 0 -73.62z m71.99 22.09 c0.61 -57.47 1.43 -61.35 14.52 -69.12 8.38 -5.11 33.33 -5.73 42.33 -1.02 12.27 6.34 13.29 10.84 13.70 68.51 l0.41 52.15 15.54 0.61 15.54 0.61 -0.61 -55.83 -0.61 -55.83 -6.14 -11.25 c-6.75 -12.47 -20.86 -23.52 -33.13 -25.77 -3.89 -0.82 -12.27 -0.20 -18.41 1.23 -9 1.84 -13.29 4.50 -21.68 12.47 -8.18 7.98 -11.86 10.02 -17.18 10.02 l-6.75 0 0 -11.25 0 -11.25 -14.32 0 -14.32 0 0 73.62 0 73.62 15.13 0 15.13 0 0.82 -51.54z m339.07 4.29 c0 -53.99 1.43 -62.37 11.66 -71.37 6.54 -5.73 7.98 -6.14 23.93 -6.14 14.32 0 18 0.82 23.93 4.70 10.84 7.16 11.86 12.88 11.86 69.53 l0.20 50.51 15.54 0 15.34 0 -0.61 -55.63 -0.61 -55.83 -5.73 -10.84 c-9.61 -18.20 -28.22 -28.63 -47.04 -26.18 -13.29 1.84 -19.84 5.32 -28.43 15.54 -5.52 6.34 -8.59 8.18 -13.50 8.18 l-6.54 0 0 -38.86 0 -38.86 -15.34 0 -15.34 0 0 101.23 0 101.23 15.34 0 15.34 0 0 -47.24z m184.06 -15.13 l0 -62.37 16.36 0 16.36 0 0 -11.25 0 -11.04 -15.75 -0.61 -15.95 -0.61 0.20 -16.16 c0 -20.04 3.27 -23.72 20.45 -23.72 11.86 0 11.04 0.82 13.91 -14.72 1.02 -4.70 -2.66 -5.73 -18.81 -5.73 -16.97 0 -28.02 4.70 -36.81 15.54 -7.98 9.41 -10.63 18.20 -10.63 33.95 l0 11.66 -10.63 0.61 -10.84 0.61 0 10.23 0 10.23 10.84 0.61 10.63 0.61 0 62.37 0 62.17 15.34 0 15.34 0 0 -62.37z m98.16 -11.25 l0 -73.62 -15.13 0 -14.93 0 -1.23 13.91 c-1.84 18.20 -1.84 130.27 0 131.91 0.61 0.82 7.98 1.43 16.36 1.43 l14.93 0 0 -73.62z m73.62 -26.59 l0 -100.21 -15.34 0 -15.34 0 0 100.21 0 100.21 15.34 0 15.34 0 0 -100.21z m560.75 87.53 c3.68 -4.70 5.32 -7.77 3.68 -6.75 -1.64 1.02 -9 3.07 -16.36 4.29 -10.63 2.05 -11.86 2.45 -5.52 2.66 6.75 0.20 7.57 0.82 7.57 5.52 0 6.34 1.84 5.32 10.63 -5.73z m-105.32 -6.14 c-0.41 -2.66 -0.82 -0.61 -0.82 4.50 0 5.11 0.41 7.16 0.82 4.70 0.41 -2.66 0.41 -6.75 0 -9.20z m153.38 0 c-0.41 -2.66 -0.82 -1.02 -0.82 3.48 -0.20 4.50 0.20 6.54 0.82 4.70 0.41 -2.05 0.41 -5.73 0 -8.18z m-1923.99 0.41 c10.43 -5.32 25.15 -18.41 30.88 -27.40 19.02 -30.88 5.32 -72.19 -29.86 -89.37 -24.95 -12.27 -49.49 -6.95 -70.15 15.54 -17.59 19.43 -22.70 41.11 -14.52 62.78 13.09 34.97 53.79 53.79 83.64 38.45z m1913.97 -13.70 c-2.05 -0.41 -5.32 -0.41 -7.16 0 -2.05 0.61 -0.41 1.02 3.48 1.02 3.89 0 5.52 -0.41 3.68 -1.02z m-53.58 -15.75 c10.84 -10.84 8.59 -23.72 -5.11 -30.88 -5.11 -2.45 -6.54 -2.45 -12.68 0.61 -3.68 1.84 -8.59 6.54 -10.63 10.23 -3.48 5.73 -3.68 7.57 -1.23 12.88 2.66 6.75 12.68 14.11 19.02 14.11 2.05 0 6.75 -3.07 10.63 -6.95z m-122.09 -13.91 c-0.20 -11.04 -0.41 -12.07 -2.05 -6.75 -1.64 5.52 -0.61 19.43 1.43 19.43 0.41 0 0.82 -5.73 0.61 -12.68z m176.08 -28.22 c2.25 -1.43 0.82 -2.05 -5.11 -2.05 -5.93 0 -7.36 0.61 -5.11 2.05 1.64 1.02 4.09 2.05 5.11 2.05 1.23 0 3.48 -1.02 5.11 -2.05z m-144.59 -12.27 c1.02 -3.89 0.82 -3.89 -5.52 -0.61 -8.79 4.50 -8.79 4.70 -1.84 4.70 4.50 0 6.54 -1.23 7.36 -4.09z m152.77 -14.32 l-2.25 -5.11 1.23 5.11 c0.41 2.86 1.23 7.98 1.23 11.25 l0.41 6.14 0.82 -6.14 c0.41 -3.48 -0.20 -8.59 -1.43 -11.25z m-49.08 4.91 c-9 -9 -9.20 -9.20 -9.82 -4.09 -0.61 4.91 -1.64 5.32 -10.23 5.52 -8.18 0.20 -6.95 0.61 7.36 2.86 9.41 1.43 17.59 3.07 18.20 3.89 0.82 0.61 1.84 1.23 2.45 1.23 0.61 0 -3.07 -4.29 -7.98 -9.41z m-2081.66 -33.33 c-4.91 -9.61 -9.20 -17.79 -9.20 -18 -1.23 -1.64 -21.68 6.95 -21.68 9 0 2.86 11.45 26.59 19.84 41.11 l5.11 8.59 7.57 -11.66 7.36 -11.66 -9 -17.38z m367.50 2.86 c12.68 -3.89 21.27 -10.63 28.43 -23.11 14.72 -24.95 3.68 -82.21 -23.11 -121.68 -24.34 -35.58 -62.99 -56.65 -104.09 -56.65 -16.97 0.20 -25.36 1.84 -49.08 10.43 l-17.79 6.54 9.20 9.20 9.20 9.20 12.07 -3.27 c17.79 -4.91 38.65 -6.34 55.83 -3.68 52.15 7.98 85.89 54.81 85.89 118.82 0 27.40 -0.41 27.61 -23.31 27.40 -19.22 -0.41 -32.11 -4.70 -49.90 -16.97 -13.09 -9 -25.15 -21.06 -61.15 -61.56 -54.60 -61.15 -84.87 -84.26 -121.48 -93.05 -41.31 -9.61 -84.67 3.89 -117.39 36.81 -9 9.20 -19.43 21.68 -23.11 28.02 -6.34 10.63 -18 40.08 -16.36 41.51 0.82 0.61 26.38 -4.50 26.99 -5.52 0.20 -0.41 2.45 -5.52 4.91 -11.66 5.73 -14.11 20.25 -34.36 30.27 -42.13 22.09 -17.18 34.97 -21.47 66.46 -21.47 26.59 0 41.11 3.48 58.69 13.70 13.50 7.77 35.38 27.40 54.60 48.88 14.72 16.77 17.38 20.66 17.38 26.79 l0 7.16 -28.43 -1.43 -28.43 -1.43 -8.38 12.27 c-4.70 6.95 -8.38 12.88 -8.38 13.29 0 0.41 12.68 1.43 28.22 2.05 46.22 2.05 78.73 9.41 101.64 22.90 31.29 18.41 61.97 31.08 75.87 31.49 2.25 0.20 8.79 -1.23 14.72 -2.86z m1723.98 -12.68 c-2.05 -0.41 -5.32 -0.41 -7.16 0 -2.05 0.61 -0.41 1.02 3.48 1.02 3.89 0 5.52 -0.41 3.68 -1.02z m-1342.38 -29.45 c3.07 -2.45 6.34 -6.34 7.36 -8.79 2.05 -5.73 -2.66 -14.72 -9.82 -18.41 -5.11 -2.66 -6.54 -2.66 -12.07 0 -12.88 6.34 -13.91 20.25 -2.05 27.40 8.18 5.11 9.82 5.11 16.56 -0.20z m695.73 -2.66 c8.59 -8.59 8.59 -12.07 0.82 -20.04 -5.32 -5.11 -7.36 -5.93 -12.88 -4.91 -7.16 1.43 -15.75 9.61 -15.75 15.34 0 5.32 12.07 15.75 19.22 16.36 0.82 0.20 4.70 -2.86 8.59 -6.75z"/>
  <path d="M1991.89 686.73 c0 -12.27 6.54 -24.54 16.16 -29.86 10.84 -6.14 34.97 -6.34 44.79 -0.41 9.82 5.93 14.72 15.34 14.72 28.22 l0 10.63 -37.83 0 -37.83 0 0 -8.59z"/>
 </g>
 <g fill="#0e2861">
  <path d="M466.27 972.43 c-82.21 -16.56 -134.16 -106.34 -107.37 -186.10 12.07 -36.40 59.92 -117.18 128.63 -217.80 33.95 -49.49 49.69 -69.53 55.22 -69.53 2.66 0 9.61 4.50 17.18 11.45 l12.68 11.25 -11.04 13.70 c-35.99 45.20 -122.50 178.53 -148.47 228.64 -14.52 28.22 -18.41 40.29 -19.84 59.10 -1.43 20.45 1.64 35.58 11.04 54.40 22.90 46.01 73.62 67.69 120.66 51.74 l15.54 -5.11 14.52 13.91 c7.98 7.57 14.72 14.11 15.34 14.52 2.05 1.02 -7.16 6.14 -20.86 11.45 -28.22 11.04 -56.44 13.70 -83.23 8.38z"/>
  <path d="M643.78 973.45 c-48.06 -8.18 -85.69 -37.02 -134.16 -102.46 -14.72 -20.04 -65.44 -96.12 -74.24 -111.46 l-4.70 -8.38 10.23 -16.97 c5.52 -9.41 11.04 -17.38 12.47 -17.79 1.43 -0.61 5.93 4.91 10.23 11.86 4.29 6.95 21.27 32.93 37.63 57.88 76.69 116.36 106.75 143.56 162.58 147.86 56.65 4.29 103.68 -44.79 105.73 -110.23 0.61 -20.45 -1.23 -22.70 -18.20 -21.68 -17.38 1.02 -39.67 12.27 -57.47 28.84 -7.36 6.95 -24.34 25.15 -37.42 40.29 -13.29 15.13 -27.20 30.68 -31.08 34.36 l-6.95 6.54 -9.20 -6.34 c-4.91 -3.48 -11.86 -9.20 -15.54 -12.68 l-6.54 -6.14 16.36 -17.38 c8.79 -9.61 15.95 -17.79 15.54 -18.20 -0.41 -0.20 -7.98 0.41 -16.97 1.64 -8.79 1.02 -22.09 1.84 -29.24 1.43 l-12.88 -0.61 -12.27 -16.77 c-6.75 -9.20 -11.66 -17.79 -10.84 -19.02 0.82 -1.23 10.23 -2.05 23.11 -2.05 47.24 0 90.19 -10.43 121.07 -29.45 30.68 -18.61 52.15 -25.77 77.92 -25.77 38.65 0 55.83 26.18 50.72 77.30 -5.32 51.13 -37.42 101.64 -77.51 121.68 -27.81 13.91 -58.69 18.61 -88.35 13.70z"/>
  <path d="M438.66 852.58 c-12.27 -1.02 -25.56 -2.25 -29.04 -2.86 l-6.75 -1.23 0 -18.20 c0 -10.02 0.82 -18.61 1.84 -19.22 1.02 -0.61 13.29 -0.61 27.61 0.20 l25.77 1.23 13.29 20.04 c7.36 10.84 13.29 20.45 13.29 21.06 0 1.43 -16.97 1.23 -46.01 -1.02z"/>
  <path d="M329.05 824.36 c-31.49 -20.45 -50.72 -44.58 -61.56 -76.89 -4.09 -12.47 -4.70 -18.20 -4.70 -44.99 0.20 -29.24 0.41 -31.49 6.54 -47.45 10.84 -28.43 28.43 -51.54 52.15 -68.10 30.88 -21.68 64.01 -30.27 125.16 -32.11 l38.86 -1.23 -3.89 5.93 c-2.05 3.27 -7.77 12.07 -12.88 19.63 l-9 13.50 -11.45 1.23 c-6.54 0.61 -19.02 1.64 -28.02 2.45 -21.47 1.64 -51.54 9.41 -64.83 16.56 -37.22 20.25 -60.12 66.46 -52.97 106.96 4.50 24.75 21.06 51.13 41.51 65.85 3.89 2.86 3.89 0.82 -1.84 36.61 l-1.64 9.61 -11.45 -7.57z"/>
  <path d="M2401.92 816.18 c-10.43 -4.70 -24.75 -20.86 -27.61 -30.68 -1.02 -4.09 -2.05 -13.09 -2.05 -20.04 0 -11.25 1.23 -14.93 10.23 -32.72 5.73 -11.04 20.25 -34.77 32.31 -52.76 17.79 -26.79 22.90 -32.93 27.20 -33.33 2.86 -0.41 6.34 0.82 7.98 2.66 2.25 2.66 1.43 4.91 -5.93 14.93 -26.59 36.81 -54.19 84.26 -56.65 97.55 -4.50 24.75 19.43 48.67 42.74 42.54 7.36 -2.05 9 -1.84 13.91 2.05 7.36 5.93 7.36 7.16 -1.23 10.84 -9.82 4.09 -30.88 3.68 -40.90 -1.02z"/>
  <path d="M2470.43 818.23 c-16.16 -4.91 -30.27 -18.81 -50.51 -49.29 -19.43 -29.04 -19.63 -29.65 -16.56 -34.77 5.11 -7.98 10.23 -5.11 19.63 10.84 12.68 21.27 30.68 44.17 40.70 51.74 9 6.95 23.11 10.43 31.90 8.18 14.11 -3.48 26.38 -18.61 29.04 -35.58 1.84 -11.86 -0.41 -14.11 -11.25 -10.84 -8.59 2.45 -17.38 10.23 -32.93 28.63 l-9.41 11.04 -6.54 -4.70 -6.54 -4.50 5.11 -5.52 c2.86 -3.07 5.32 -6.14 5.32 -6.75 0 -0.61 -4.50 -0.61 -10.02 0 -9.20 0.82 -10.23 0.41 -14.32 -5.52 -5.32 -7.57 -5.73 -7.16 17.18 -10.43 14.72 -2.25 21.47 -4.70 40.90 -15.13 3.48 -1.84 11.04 -3.27 17.79 -3.27 10.23 0 12.07 0.61 15.95 5.73 6.54 8.18 5.11 32.72 -2.66 46.01 -6.14 10.43 -15.75 19.22 -25.36 23.31 -7.16 2.86 -28.84 3.27 -37.42 0.82z"/>
  <path d="M973.04 785.51 c-32.93 -10.84 -54.60 -34.97 -64.01 -70.76 -4.09 -16.16 -4.09 -52.76 0.20 -69.33 7.77 -30.06 25.97 -53.17 51.74 -65.24 16.36 -7.77 46.63 -11.25 64.42 -7.57 33.74 6.95 60.33 33.33 66.46 66.06 l1.64 9.61 -21.68 0 -21.68 0 -5.73 -12.27 c-7.98 -17.18 -17.38 -23.11 -37.42 -24.13 -38.45 -2.05 -57.26 23.31 -55.83 74.03 0.82 20.86 1.43 24.13 6.95 34.97 7.57 14.93 19.43 24.34 34.56 27.81 25.36 5.52 45.81 -5.52 54.40 -29.24 l2.05 -5.73 22.50 0 22.50 0 -1.23 5.73 c-6.54 30.27 -25.77 53.79 -52.35 64.21 -15.75 6.14 -51.54 7.16 -67.49 1.84z"/>
  <path d="M1413.14 786.73 c-35.99 -10.23 -56.65 -48.26 -50.92 -93.66 3.48 -27.61 17.79 -49.08 40.08 -60.12 10.02 -4.91 15.13 -5.93 32.31 -6.75 17.38 -0.61 22.09 -0.20 32.31 3.68 6.54 2.45 15.75 7.36 20.45 11.04 9.41 7.16 19.22 24.13 21.27 36.61 l1.23 7.57 -21.27 0 -21.27 0 -3.48 -8.18 c-6.34 -15.34 -26.99 -21.27 -41.72 -12.27 -11.25 7.16 -16.16 20.04 -16.16 42.95 0.20 25.56 5.32 37.42 19.02 43.36 16.36 7.36 32.72 1.84 39.06 -12.88 l3.27 -7.98 21.27 0 21.06 0 -1.43 7.57 c-3.48 19.02 -18.61 37.63 -36.81 45.81 -12.47 5.73 -43.76 7.36 -58.28 3.27z"/>
  <path d="M2002.73 785.51 c-26.59 -9.20 -43.56 -31.29 -48.06 -63.60 -4.29 -30.06 4.50 -59.31 23.31 -76.89 13.91 -12.88 25.36 -17.59 46.83 -18.81 21.88 -1.23 34.15 1.64 48.26 10.84 19.43 12.88 29.04 32.52 30.88 64.01 l1.02 18.81 -53.79 0 -53.79 0 1.23 8.59 c0.61 4.70 2.86 10.84 4.91 13.70 5.52 7.36 20.25 14.52 30.27 14.52 9.41 0 22.50 -5.93 26.99 -12.27 2.66 -3.68 5.11 -4.09 22.50 -4.09 l19.63 0 -1.43 6.75 c-1.84 8.79 -12.47 24.13 -21.06 30.06 -18 12.27 -54.81 16.36 -77.71 8.38z m58.69 -100.82 c0 -6.75 -7.16 -17.38 -14.72 -22.09 -14.93 -9 -37.02 -2.45 -44.58 13.29 -2.25 4.70 -4.09 9.61 -4.09 10.84 0 1.84 8.59 2.45 31.70 2.45 31.49 0 31.70 0 31.70 -4.50z"/>
  <path d="M1118.65 707.59 l0 -79.76 22.50 0 22.50 0 0 79.76 0 79.76 -22.50 0 -22.50 0 0 -79.76z"/>
  <path d="M1192.27 707.59 l0 -79.76 20.45 0 20.45 0 0 11.25 c0 6.14 0.20 11.25 0.61 11.25 0.41 0 5.32 -4.50 10.84 -9.82 11.45 -11.04 21.47 -14.72 40.70 -14.72 20.04 0 36.40 9.82 45.60 27.20 l5.52 10.63 0.61 61.97 0.61 61.97 -21.88 -0.61 -22.09 -0.61 -0.20 -52.15 c0 -46.01 -0.41 -52.97 -3.68 -58.69 -9.82 -18.20 -39.67 -16.97 -49.90 1.84 -3.27 5.93 -3.68 13.29 -4.29 58.49 l-0.82 51.54 -21.27 0 -21.27 0 0 -79.76z"/>
  <path d="M1531.75 679.98 l0 -107.37 21.47 0 21.47 0 0 39.27 0 39.27 7.36 -8.59 c4.09 -4.91 10.23 -10.23 13.70 -11.86 8.18 -4.29 35.38 -6.14 44.99 -3.07 12.07 4.09 23.52 13.70 29.45 25.15 l5.73 10.84 0.61 61.97 0.61 61.76 -21.47 0 -21.68 0 -0.20 -50.51 c0 -33.74 -0.82 -53.17 -2.45 -57.88 -3.48 -10.23 -13.70 -16.36 -27.20 -16.36 -9.20 0 -12.07 1.02 -17.79 6.14 -10.23 9 -11.66 17.38 -11.66 71.37 l0 47.24 -21.47 0 -21.47 0 0 -107.37z"/>
  <path d="M1715.80 725.18 l0 -62.37 -10.63 -0.61 -10.84 -0.61 0 -16.36 0 -16.36 10.84 -0.61 10.63 -0.61 0 -11.66 c0 -16.16 2.86 -24.75 11.25 -34.56 10.63 -12.47 20.45 -15.54 46.63 -14.52 11.86 0.20 22.09 1.02 22.70 1.64 0.61 0.61 0.20 4.70 -0.82 9.20 -0.82 4.50 -2.25 11.45 -2.86 15.34 l-1.23 7.16 -10.84 -0.61 c-14.93 -1.02 -20.04 3.27 -20.45 16.97 l-0.41 10.23 15.95 0.61 15.75 0.61 0 17.18 0 17.38 -16.36 0 -16.36 0 0 62.37 0 62.37 -21.47 0 -21.47 0 0 -62.17z"/>
  <path d="M1812.94 785.30 c-0.61 -1.02 -1.02 -37.02 -0.82 -79.76 l0.20 -77.71 22.29 0 22.29 0 0 79.76 0 79.76 -21.27 0 c-11.86 0 -22.09 -0.82 -22.70 -2.05z"/>
  <path d="M1887.59 681 l0 -106.34 18.20 0 c10.02 0 19.63 -0.61 21.47 -1.23 2.86 -1.23 3.27 9 3.27 106.34 l0 107.57 -21.47 0 -21.47 0 0 -106.34z"/>
  <path d="M2402.53 775.69 l-11.86 -0.82 0 -6.95 0 -7.16 10.02 0 c9.20 0 10.43 0.61 14.32 6.95 4.91 7.98 5.32 9.61 1.84 9 -1.43 -0.20 -7.98 -0.61 -14.32 -1.02z"/>
  <path d="M2356.93 760.56 c-14.11 -13.09 -18.41 -22.29 -18.41 -40.70 0 -16.97 3.07 -24.75 14.11 -36.40 11.66 -12.47 30.06 -18.81 54.60 -18.81 l12.47 0 -4.29 6.75 c-3.48 5.52 -5.73 6.75 -14.93 8.18 -15.95 2.25 -16.77 2.66 -11.86 7.57 6.14 6.14 7.36 13.91 3.07 21.88 -2.05 3.68 -4.29 6.75 -5.11 6.75 -0.82 0 -4.09 -5.73 -7.16 -12.68 -3.07 -7.16 -5.93 -13.09 -6.14 -13.50 -0.20 -0.20 -2.86 0.61 -5.93 1.84 -2.86 1.43 -7.16 6.34 -9.41 11.04 -7.16 14.93 -4.50 32.52 6.75 44.79 4.29 4.50 5.11 6.95 4.09 13.09 -0.61 4.09 -1.43 7.98 -1.84 8.18 -0.20 0.41 -4.70 -3.27 -10.02 -7.98z"/>
  <path d="M2492.93 690 c-15.75 -8.18 -19.43 -9.20 -35.38 -10.43 -9.82 -0.61 -17.79 -1.64 -17.79 -2.05 0 -0.61 1.84 -3.48 4.29 -6.34 3.07 -4.09 6.54 -5.73 13.70 -6.54 l9.61 -1.02 -7.98 -8.79 c-23.31 -25.77 -55.83 -26.38 -66.87 -1.23 -4.09 9 -6.95 11.04 -15.54 11.04 -4.50 0 -4.91 -0.61 -3.68 -5.52 3.68 -14.93 13.70 -28.22 25.97 -34.56 3.27 -1.64 12.27 -3.68 19.84 -4.29 21.88 -1.84 31.90 3.89 60.94 33.95 23.52 24.34 30.88 29.65 39.88 28.43 4.29 -0.61 4.70 -1.43 4.09 -9.61 -1.23 -18.81 -13.09 -34.77 -28.22 -37.83 -3.48 -0.82 -10.84 -0.41 -15.95 1.02 -9.20 2.25 -10.02 2.25 -14.93 -2.86 -6.34 -6.34 -5.32 -8.38 6.34 -11.45 22.09 -5.52 38.65 -1.84 52.35 11.86 11.04 11.04 16.36 24.13 16.36 40.29 0 27.20 -15.54 32.52 -47.04 15.95z"/>
  <path d="M386.52 678.96 c-10.23 -17.38 -23.93 -46.01 -25.56 -53.38 -1.23 -5.11 -0.61 -5.73 11.45 -9.82 23.11 -7.77 23.72 -7.57 36.40 16.97 l10.84 21.27 -12.27 19.84 -12.47 19.63 -8.38 -14.52z"/>
  <path d="M732.13 645.22 c-11.86 -3.27 -39.47 -16.36 -60.33 -28.63 -23.93 -13.91 -56.44 -21.06 -105.93 -22.90 -22.29 -0.82 -32.11 -1.84 -31.49 -3.48 0.61 -1.23 6.34 -10.02 12.68 -19.43 l11.86 -17.18 28.43 1.23 28.43 1.23 -4.70 -6.54 c-8.59 -11.86 -49.49 -51.94 -61.15 -59.51 -32.52 -21.47 -76.89 -23.72 -106.14 -5.52 -18.81 11.66 -38.65 35.99 -44.79 55.01 -2.25 6.54 -4.09 9 -8.18 9.82 -12.47 2.45 -30.47 6.95 -33.95 8.18 -3.27 1.43 -3.68 0.61 -2.45 -8.18 1.84 -13.70 10.23 -36.40 18.20 -49.90 10.43 -17.59 37.02 -43.15 52.76 -50.92 29.45 -14.52 39.67 -16.97 69.53 -16.97 28.84 0 54.60 8.59 81.60 26.99 13.50 9.41 41.92 37.42 70.35 69.12 47.45 53.17 60.33 64.62 83.44 73.62 13.09 5.11 30.47 6.34 35.17 2.25 4.91 -3.89 4.70 -29.86 -0.61 -50.10 -16.77 -65.85 -73.21 -97.34 -133.75 -74.64 l-11.45 4.29 -15.13 -14.11 c-10.84 -10.02 -14.52 -14.52 -13.09 -16.36 2.45 -3.07 30.06 -13.91 46.01 -18 15.13 -3.89 49.08 -3.89 66.06 0.20 41.92 9.82 74.64 39.88 93.05 85.28 9.41 22.70 13.50 42.74 13.70 64.83 0.20 21.27 -2.66 31.90 -11.25 43.36 -12.88 17.18 -40.49 24.13 -66.87 16.97z"/>
  <path d="M1825.21 605.34 c-8.18 -3.27 -13.91 -11.66 -13.91 -20.25 0 -15.34 8.59 -22.70 26.38 -22.70 7.57 0 10.43 1.23 15.34 5.93 4.91 4.91 5.93 7.77 5.93 15.54 0 8.18 -1.02 10.63 -6.95 16.56 -5.52 5.52 -8.59 6.95 -14.72 6.75 -4.50 0 -9.82 -0.82 -12.07 -1.84z"/>
 </g>
 <g fill="#24b2a9">
  <path d="M562.39 771.80 c-29.86 -10.84 -47.04 -35.38 -47.04 -67.28 0 -20.25 5.52 -34.56 18.61 -49.08 14.93 -16.16 27.61 -21.68 50.31 -22.09 16.56 -0.41 19.22 0.20 31.70 6.34 21.68 10.63 34.15 27.40 38.45 51.54 5.73 31.49 -8.59 61.15 -37.22 76.69 -9 4.91 -13.70 6.14 -28.22 6.54 -12.27 0.41 -20.04 -0.41 -26.59 -2.66z"/>
  <path d="M2443.44 743.17 c-17.18 -9.20 -14.93 -39.27 3.48 -47.04 10.02 -4.09 17.79 -3.48 25.77 1.84 14.11 9.41 15.54 29.04 2.86 41.72 -5.73 5.73 -8.18 6.75 -16.56 6.75 -5.52 -0.20 -12.47 -1.43 -15.54 -3.27z"/>
  <path d="M1128.46 604.11 c-6.34 -3.27 -11.86 -12.47 -11.86 -19.22 0 -12.68 12.27 -24.54 25.56 -24.54 21.06 0 31.29 27.20 15.34 41.51 -7.16 6.34 -19.63 7.36 -29.04 2.25z"/>
 </g>
 <g fill="#424142">
  <path d="M1100.24 941.14 c-7.98 -3.89 -10.84 -10.63 -4.70 -10.63 2.05 0 5.52 1.43 7.57 3.07 9.41 7.16 21.68 1.02 21.68 -10.43 0 -6.95 -0.20 -7.16 -4.50 -4.09 -2.45 1.84 -7.77 3.27 -11.45 3.27 -18.81 0 -28.02 -32.31 -13.70 -47.85 4.09 -4.50 6.75 -5.32 16.16 -5.32 6.14 0 11.86 1.02 12.47 2.05 0.82 1.23 2.45 0.82 4.29 -1.02 1.84 -1.64 4.09 -3.07 5.11 -3.07 1.02 0 1.84 12.47 1.84 28.63 0 33.95 -2.25 41.51 -13.09 46.01 -9.41 3.89 -12.88 3.89 -21.68 -0.61z m21.68 -31.29 c2.66 -2.86 3.68 -7.36 3.68 -15.13 0 -17.79 -11.66 -25.36 -22.70 -14.93 -6.54 6.14 -6.75 22.70 -0.20 29.65 5.52 5.93 14.11 6.14 19.22 0.41z"/>
  <path d="M922.73 887.15 c0.61 -34.97 0.61 -35.38 5.32 -35.99 l4.50 -0.61 0 35.79 0 35.99 -5.11 0 -5.11 0 0.41 -35.17z"/>
  <path d="M946.86 895.74 c0 -25.15 0.20 -26.59 4.09 -26.59 2.25 0 4.09 1.02 4.09 2.05 0 3.07 5.32 2.45 8.18 -1.02 3.68 -4.29 12.88 -3.89 19.22 1.23 5.11 4.09 5.32 4.70 5.32 27.61 0 21.88 -0.20 23.31 -4.09 23.31 -3.89 0 -4.09 -1.43 -4.09 -20.25 0 -15.75 -0.82 -21.06 -3.27 -23.52 -4.29 -4.50 -12.27 -4.09 -17.18 0.82 -3.48 3.48 -4.09 6.75 -4.09 23.52 0 18 -0.20 19.43 -4.09 19.43 -3.89 0 -4.09 -1.43 -4.09 -26.59z"/>
  <path d="M1009.44 919.05 c-2.45 -2.45 -3.27 -7.57 -3.27 -22.70 0 -17.59 -0.41 -19.43 -4.09 -20.45 -4.91 -1.23 -5.11 -3.27 -1.23 -6.75 1.64 -1.23 3.27 -4.91 3.68 -7.77 0.41 -3.89 2.05 -5.73 5.32 -6.14 3.89 -0.61 4.50 0.20 4.50 5.52 0 5.73 0.61 6.34 6.14 6.34 4.70 0 6.14 0.82 6.14 4.09 0 3.27 -1.43 4.09 -6.14 4.09 l-6.34 0 0.61 18.81 c0.61 18.20 0.82 18.81 5.73 20.04 2.86 0.61 5.32 2.86 5.73 4.70 0.61 2.66 -0.82 3.48 -6.54 3.48 -3.89 0 -8.59 -1.43 -10.23 -3.27z"/>
  <path d="M1041.34 916.60 c-11.45 -10.63 -10.43 -33.95 1.84 -44.17 14.93 -12.68 36.61 -1.43 36.61 19.22 l0 6.14 -18.41 0 c-15.34 0 -18.41 0.61 -18.41 3.27 0 5.73 3.89 10.63 10.63 12.88 5.73 2.05 7.36 1.84 12.27 -1.84 10.84 -7.98 16.97 -2.25 6.54 5.93 -8.38 6.54 -23.11 5.93 -31.08 -1.43z m28.84 -30.47 c-4.09 -11.86 -15.75 -14.52 -22.90 -5.52 -2.45 3.07 -4.29 6.34 -4.29 7.16 0 1.02 6.34 1.84 14.32 1.84 12.68 0 14.11 -0.41 12.88 -3.48z"/>
  <path d="M1147.28 895.74 c0 -22.90 0.41 -26.99 3.27 -28.02 2.05 -0.82 4.50 0 5.73 1.84 2.05 2.66 2.66 2.66 5.11 0.20 3.89 -4.29 13.50 -2.66 13.50 2.45 0 2.86 -1.23 3.89 -4.09 3.48 -2.45 -0.20 -6.34 1.43 -8.79 3.68 -4.09 3.89 -4.50 6.34 -4.50 23.52 0 19.43 0 19.43 -5.11 19.43 l-5.11 0 0 -26.59z"/>
  <path d="M1184.29 917 c-6.54 -8.38 -4.50 -21.27 3.48 -21.27 1.84 0 5.32 -1.43 7.36 -3.07 2.25 -1.64 7.16 -3.07 10.84 -3.07 7.77 0 10.23 -3.68 6.75 -10.02 -3.07 -5.93 -15.34 -5.93 -18.81 -0.20 -2.86 4.50 -8.79 5.52 -11.04 1.84 -2.66 -4.50 8.59 -12.68 19.02 -13.50 8.59 -0.82 10.84 -0.41 15.34 3.68 5.11 4.70 5.52 6.14 6.14 28.02 0.82 22.90 0.82 22.90 -3.89 22.90 -3.07 0 -4.70 -1.23 -4.70 -3.48 0 -3.07 -0.20 -3.07 -3.68 0 -2.45 2.25 -7.36 3.48 -13.29 3.48 -7.57 0 -10.02 -1.02 -13.50 -5.32z m26.18 -6.14 c2.45 -3.07 4.29 -7.57 4.29 -10.23 0 -4.70 -0.61 -4.91 -8.59 -3.68 -12.27 1.84 -15.95 4.29 -15.95 10.02 0 9.82 13.50 12.27 20.25 3.89z"/>
  <path d="M1243.40 919.25 c-1.64 -2.05 -3.07 -11.45 -3.68 -23.52 -0.82 -18.81 -1.23 -20.45 -5.11 -20.45 -4.09 0 -4.09 0 0 -4.50 2.45 -2.66 4.70 -6.95 5.11 -9.82 0.41 -3.48 2.05 -5.32 5.32 -5.73 3.89 -0.61 4.50 0.20 4.50 5.52 0 5.11 0.82 6.14 5.52 6.75 3.48 0.41 5.93 2.05 6.34 4.29 0.61 2.66 -0.61 3.48 -5.73 3.48 l-6.34 0 0.61 18.81 c0.61 18.20 0.82 18.81 5.73 20.04 2.86 0.61 5.32 2.86 5.73 4.70 0.61 2.86 -0.82 3.48 -7.36 3.48 -4.70 0 -9.20 -1.23 -10.63 -3.07z"/>
  <path d="M1277.55 918.03 c-10.84 -8.38 -12.27 -33.13 -2.45 -43.56 5.93 -6.34 13.70 -8.59 23.11 -6.14 8.79 2.25 14.72 9.82 16.16 20.86 l1.23 8.59 -18.81 0 c-16.56 0 -18.61 0.41 -18.61 3.68 0 2.05 1.43 5.73 3.27 8.18 3.68 5.32 17.18 6.34 21.27 1.43 3.27 -3.89 10.23 -4.09 10.23 -0.20 0 1.64 -2.45 4.91 -5.32 7.16 -7.36 5.93 -22.90 5.93 -30.06 0z m18.20 -28.43 c6.95 0 9 -0.82 9 -3.48 0 -10.02 -14.93 -14.32 -22.50 -6.34 -5.93 6.34 -4.91 13.50 1.64 10.84 1.43 -0.61 6.95 -1.02 11.86 -1.02z"/>
  <path d="M1333.58 919.05 c-14.72 -10.43 -12.88 -42.54 3.07 -49.08 9 -3.89 16.16 -3.68 19.43 0.61 2.45 2.86 3.07 1.84 3.89 -8.79 0.82 -10.63 1.64 -12.07 5.73 -12.68 l4.50 -0.61 0 36.81 c0 35.58 -0.20 37.02 -4.09 37.02 -2.25 0 -4.09 -1.43 -4.09 -3.27 0 -2.86 -0.41 -2.86 -4.50 0 -5.93 4.29 -17.79 4.09 -23.93 0z m21.68 -7.36 c8.18 -9.20 7.36 -29.65 -1.43 -34.36 -10.84 -5.93 -20.45 2.66 -20.45 18.20 0 10.84 4.09 18 10.84 19.22 2.45 0.41 5.11 1.02 5.73 1.23 0.61 0 3.07 -1.84 5.32 -4.29z"/>
  <path d="M1411.09 886.74 l0 -35.58 9.20 -1.23 c20.66 -3.27 37.02 3.89 43.15 18.61 4.50 10.23 3.68 26.99 -1.64 37.42 -6.54 12.47 -14.72 16.36 -34.77 16.36 l-15.95 0 0 -35.58z m38.04 20.45 c6.34 -6.34 6.95 -7.98 6.95 -19.43 0 -13.50 -3.68 -23.31 -9.82 -26.59 -2.05 -1.02 -8.59 -2.66 -14.32 -3.48 l-10.63 -1.43 0 29.04 0 28.84 10.43 0 c9.20 0 11.25 -0.82 17.38 -6.95z"/>
  <path d="M1486.55 919.25 c-3.07 -1.64 -6.95 -6.75 -9 -11.66 -10.02 -25.15 11.25 -49.08 33.54 -37.42 15.34 7.77 16.56 38.65 2.05 48.88 -5.93 4.09 -19.43 4.09 -26.59 0.20z m21.68 -8.18 c4.09 -3.89 5.11 -6.95 5.11 -15.95 0 -12.88 -4.91 -19.84 -14.32 -19.84 -15.75 0 -20.04 31.29 -5.32 38.45 6.75 3.27 9.20 2.86 14.52 -2.66z"/>
  <path d="M1542.38 919.05 c-13.91 -9.61 -14.32 -40.49 -0.61 -47.85 2.25 -1.02 8.79 -2.05 14.52 -2.05 8.59 0 11.25 0.82 15.34 5.32 6.54 6.95 6.54 11.04 0.20 11.04 -3.27 0 -5.52 -1.43 -6.34 -4.09 -1.64 -5.11 -10.02 -7.36 -16.36 -4.50 -9.41 4.29 -11.66 24.75 -3.68 33.54 4.50 5.11 16.16 4.91 19.43 -0.41 2.66 -4.29 11.86 -5.73 11.86 -1.84 0 1.23 -2.66 4.91 -5.93 8.18 -4.91 4.70 -7.77 5.93 -14.93 5.93 -4.91 0 -11.04 -1.43 -13.50 -3.27z"/>
  <path d="M1591.26 917 c-3.68 -4.70 -4.29 -8.38 -4.29 -27.61 0 -20.86 0.20 -22.29 4.09 -22.29 3.89 0 4.09 1.43 4.09 19.63 0 23.31 1.64 27.40 11.04 27.40 10.02 0 12.27 -4.09 13.50 -25.36 0.82 -15.54 1.64 -18.61 4.70 -19.22 3.07 -0.61 3.48 1.64 3.48 25.97 0 24.95 -0.20 26.79 -3.89 26.79 -2.25 0 -4.29 -1.23 -4.91 -2.45 -0.82 -2.05 -1.43 -2.05 -3.68 0 -1.43 1.23 -6.54 2.45 -11.25 2.45 -6.95 0 -9.61 -1.02 -12.88 -5.32z"/>
  <path d="M1642.18 895.74 c0 -25.15 0.20 -26.59 4.09 -26.59 2.25 0 4.09 1.02 4.09 2.05 0 1.23 1.84 2.05 3.89 2.05 2.25 0 4.70 -0.82 5.32 -2.05 1.64 -2.66 14.72 -2.66 16.36 0 1.84 3.07 8.38 2.45 11.25 -1.02 3.89 -4.70 13.91 -3.68 19.43 2.05 4.91 4.70 5.11 6.34 5.11 27.61 0 21.06 -0.20 22.50 -4.09 22.50 -3.89 0 -4.09 -1.43 -4.09 -18.20 0 -22.29 -2.05 -28.84 -9.20 -28.84 -10.43 0 -13.29 6.14 -13.29 27.61 0 18 -0.20 19.43 -4.09 19.43 -3.89 0 -4.09 -1.43 -4.09 -19.22 0 -15.54 -0.61 -20.04 -3.68 -23.72 -3.07 -3.68 -5.11 -4.50 -9.41 -3.27 -7.36 1.84 -9.41 8.18 -9.41 29.04 0 15.75 -0.41 17.18 -4.09 17.18 -3.89 0 -4.09 -1.43 -4.09 -26.59z"/>
  <path d="M1732.98 918.64 c-6.75 -5.32 -9 -11.25 -9 -23.31 0 -7.16 1.43 -13.09 4.09 -17.59 11.45 -18.61 37.83 -11.86 40.29 10.43 l1.23 9.61 -18.81 0 c-10.43 0 -18.61 0.82 -18.61 2.05 0 9.61 12.47 18.61 20.04 14.52 2.45 -1.23 6.75 -2.25 10.02 -2.25 l5.73 0.20 -5.73 4.91 c-7.16 6.34 -22.50 6.95 -29.24 1.43z m27.61 -30.27 c0.61 -0.61 -1.02 -3.48 -3.27 -6.54 -5.73 -7.57 -15.95 -7.77 -21.68 0 -2.25 2.86 -3.48 6.14 -2.86 7.16 1.23 1.84 25.97 1.23 27.81 -0.61z"/>
  <path d="M1780.02 905.55 c0.41 -9.41 0.82 -21.27 1.02 -26.59 0.20 -8.38 0.82 -9.82 4.29 -9.82 2.25 0 4.09 1.02 4.09 2.25 0 1.02 2.05 0.61 4.50 -1.02 6.95 -4.91 17.38 -4.09 23.11 1.84 4.91 4.70 5.11 6.34 5.11 27.61 0 21.06 -0.20 22.50 -4.09 22.50 -3.68 0 -4.09 -1.43 -4.09 -17.79 0 -10.43 -1.23 -20.25 -2.66 -23.11 -3.27 -6.75 -12.07 -7.77 -17.59 -2.25 -3.68 3.68 -4.29 6.75 -4.29 23.72 0 19.22 0 19.43 -4.91 19.43 -5.11 0 -5.11 -0.20 -4.50 -16.77z"/>
  <path d="M1842.39 918.84 c-1.84 -2.05 -3.07 -10.23 -3.48 -23.52 -0.82 -18.81 -1.02 -20.04 -5.11 -20.04 l-4.09 0 4.09 -4.50 c2.45 -2.66 4.70 -6.95 5.11 -9.82 0.41 -3.48 2.05 -5.32 5.32 -5.73 3.89 -0.61 4.50 0.20 4.50 5.52 0 5.32 0.82 6.34 5.11 6.34 3.68 0 5.11 1.02 5.11 4.09 0 3.07 -1.43 4.09 -5.11 4.09 l-5.32 0 0.61 18.81 c0.61 17.18 1.02 19.02 4.70 19.84 3.89 0.61 7.16 3.68 7.16 6.95 0 3.07 -15.95 1.43 -18.61 -2.05z"/>
  <path d="M1897.81 885.51 l0 -36.81 21.68 0 c21.27 0 21.47 0 20.86 4.50 -0.61 4.50 -1.43 4.70 -16.16 4.09 -8.59 -0.41 -16.16 0 -16.77 1.02 -0.41 0.82 -0.41 6.54 0 12.47 l1.23 10.63 13.91 0 c12.68 0 14.11 0.41 14.11 4.09 0 3.48 -1.64 3.89 -14.72 4.50 l-14.93 0.61 0.82 15.95 0.61 15.75 -5.32 0 -5.32 0 0 -36.81z"/>
  <path d="M1950.99 885.31 l0 -36.81 4.70 0.61 c4.50 0.61 4.50 1.02 5.11 37.02 l0.41 36.20 -5.11 0 -5.11 0 0 -37.02z"/>
  <path d="M1981.05 918.23 c-6.75 -5.32 -10.43 -16.56 -9 -28.22 2.05 -18.20 20.25 -28.02 36.20 -19.84 13.29 6.95 15.75 33.54 4.09 46.01 -4.91 5.32 -7.16 6.14 -15.95 6.14 -6.95 0 -11.66 -1.23 -15.34 -4.09z m25.77 -8.59 c5.32 -6.14 4.70 -23.52 -1.02 -29.65 -12.68 -13.50 -30.27 4.29 -23.52 23.93 4.29 12.07 16.36 14.93 24.54 5.73z"/>
  <path d="M2039.95 919.87 c-2.66 -8.18 -13.29 -46.63 -13.29 -48.47 0 -1.23 1.84 -2.25 4.09 -2.25 4.09 0 5.32 2.86 10.63 26.18 1.43 5.73 3.07 10.63 3.68 10.63 0.61 0 3.27 -8.38 5.93 -18.61 4.50 -17.38 5.11 -18.41 10.02 -17.79 5.32 0.61 5.73 1.64 12.68 28.22 2.86 10.43 4.29 9 8.18 -7.57 2.05 -9.20 3.27 -10.84 6.95 -10.84 l4.70 0 -6.14 21.47 c-5.52 18.81 -6.75 21.47 -10.63 21.47 -3.89 0 -5.11 -2.25 -9 -16.77 -6.34 -23.31 -7.36 -24.34 -10.43 -12.47 -7.16 27.61 -7.57 28.22 -12.07 28.84 -2.25 0.41 -4.70 -0.61 -5.32 -2.05z"/>
 </g>
</svg>